<svg width="22" height="22" viewBox="0 0 22 22" fill="none" xmlns="http://www.w3.org/2000/svg">
<path fill-rule="evenodd" clip-rule="evenodd" d="M11 0C4.92487 0 0 4.92487 0 11C0 17.0751 4.92487 22 11 22C17.0751 22 22 17.0751 22 11C22 4.92487 17.0751 0 11 0ZM15.738 8.55705H12.6309V7.66684H15.738V8.55705ZM15.4642 9.3043C15.0903 9.13892 14.6702 9.05589 14.2031 9.05589C13.4174 9.05589 12.7792 9.30158 12.286 9.78956C11.7941 10.2789 11.5478 10.982 11.5478 11.8987C11.5478 12.876 11.8196 13.5825 12.3667 14.016C12.911 14.4502 13.5408 14.6667 14.2549 14.6667C15.1193 14.6667 15.7919 14.4094 16.272 13.8955C16.5797 13.5716 16.7536 13.2524 16.7915 12.9393H15.36C15.2773 13.0945 15.1807 13.2156 15.071 13.3034C14.8716 13.4647 14.6115 13.5457 14.2935 13.5457C13.9913 13.5457 13.734 13.479 13.5201 13.3463C13.1669 13.1333 12.982 12.761 12.9586 12.2308H16.8653C16.8715 11.7742 16.8564 11.423 16.8184 11.1807C16.7536 10.7662 16.6115 10.4014 16.39 10.087C16.1472 9.73035 15.8388 9.469 15.4642 9.3043ZM8.63723 7.33333C9.52165 7.34626 10.1474 7.60012 10.5164 8.09559C10.7379 8.39981 10.849 8.76325 10.849 9.18725C10.849 9.62351 10.7379 9.97538 10.5137 10.2408C10.3881 10.3892 10.2039 10.5253 9.96041 10.6478C10.3302 10.7812 10.6089 10.9915 10.7986 11.2794C10.9863 11.5666 11.0808 11.9164 11.0808 12.3275C11.0808 12.7515 10.9731 13.1319 10.7572 13.4682C10.6206 13.6907 10.4495 13.8785 10.2439 14.031C10.0128 14.2059 9.74034 14.325 9.42507 14.3903C9.1098 14.455 8.769 14.4863 8.40061 14.4863H5.13337V7.33333H8.63723Z" fill="#FBF1E3"/>
<path fill-rule="evenodd" clip-rule="evenodd" d="M6.57861 8.57538H8.15704C8.50405 8.57538 8.78966 8.61281 9.01456 8.68699C9.27395 8.79453 9.40364 9.01436 9.40364 9.34853C9.40364 9.64798 9.30499 9.85761 9.10907 9.97603C8.91176 10.0945 8.65582 10.1537 8.34193 10.1537H6.57861V8.57538ZM13.3669 10.4994C13.5649 10.298 13.845 10.1972 14.2037 10.1972C14.5349 10.1972 14.8115 10.2918 15.0364 10.4817C15.2586 10.673 15.3841 10.9507 15.4096 11.3182H12.993C13.0441 10.9738 13.1689 10.7009 13.3669 10.4994ZM8.36397 11.3373H6.57858V13.2449H8.33914C8.65372 13.2449 8.89932 13.2028 9.07385 13.119C9.39189 12.9625 9.55056 12.6658 9.55056 12.2261C9.55056 11.8531 9.3974 11.5979 9.08903 11.4584C8.91656 11.3808 8.67442 11.34 8.36397 11.3373Z" fill="#FBF1E3"/>
</svg>
