<svg width="24" height="24" viewBox="0 0 24 24" fill="none" xmlns="http://www.w3.org/2000/svg">
<path fill-rule="evenodd" clip-rule="evenodd" d="M11.9601 0C5.35471 0 0 5.35535 0 11.9615C0 18.5677 5.35471 23.923 11.9601 23.923C18.5654 23.923 23.9201 18.5677 23.9201 11.9615C23.9201 5.35535 18.5654 0 11.9601 0ZM17.1117 9.30501H13.7333V8.33699H17.1117V9.30501ZM16.8139 10.1176C16.4073 9.93777 15.9505 9.84748 15.4427 9.84748C14.5884 9.84748 13.8946 10.1147 13.3583 10.6453C12.8234 11.1774 12.5557 11.9419 12.5557 12.9388C12.5557 14.0015 12.8512 14.7697 13.446 15.2412C14.0378 15.7133 14.7227 15.9487 15.499 15.9487C16.4389 15.9487 17.1702 15.6689 17.6922 15.1102C18.0268 14.7579 18.2158 14.4108 18.2571 14.0704H16.7006C16.6106 14.2391 16.5056 14.3708 16.3863 14.4663C16.1696 14.6417 15.8868 14.7298 15.541 14.7298C15.2125 14.7298 14.9327 14.6573 14.7002 14.5129C14.3161 14.2813 14.1151 13.8765 14.0896 13.3H18.3373C18.3441 12.8034 18.3276 12.4215 18.2863 12.158C18.2158 11.7073 18.0613 11.3106 17.8205 10.9687C17.5565 10.5809 17.2212 10.2967 16.8139 10.1176ZM9.39105 7.97435C10.3527 7.98841 11.033 8.26446 11.4343 8.80323C11.6751 9.13405 11.7958 9.52925 11.7958 9.99032C11.7958 10.4647 11.6751 10.8473 11.4313 11.136C11.2948 11.2973 11.0945 11.4453 10.8297 11.5785C11.2318 11.7236 11.5348 11.9523 11.7411 12.2653C11.9451 12.5776 12.0479 12.958 12.0479 13.405C12.0479 13.8661 11.9308 14.2798 11.6961 14.6454C11.5475 14.8874 11.3615 15.0917 11.138 15.2575C10.8867 15.4477 10.5904 15.5772 10.2476 15.6482C9.90486 15.7185 9.53432 15.7526 9.13377 15.7526H5.58137V7.97435H9.39105Z" fill="#CE4115"/>
<path fill-rule="evenodd" clip-rule="evenodd" d="M7.15277 9.32498H8.86897C9.24626 9.32498 9.55679 9.36569 9.80132 9.44635C10.0834 9.56329 10.2244 9.80233 10.2244 10.1657C10.2244 10.4913 10.1171 10.7193 9.90408 10.8481C9.68956 10.9768 9.41128 11.0412 9.06999 11.0412H7.15277V9.32498ZM14.5336 11.4172C14.7489 11.1981 15.0534 11.0886 15.4435 11.0886C15.8035 11.0886 16.1043 11.1915 16.3488 11.3979C16.5903 11.6059 16.7269 11.9079 16.7546 12.3075H14.1271C14.1826 11.933 14.3183 11.6362 14.5336 11.4172ZM9.09399 12.3282H7.15277V14.4027H9.06699C9.40903 14.4027 9.67606 14.3568 9.86583 14.2657C10.2116 14.0955 10.3841 13.7729 10.3841 13.2948C10.3841 12.8892 10.2176 12.6117 9.88233 12.46C9.69481 12.3756 9.43153 12.3312 9.09399 12.3282Z" fill="#CE4115"/>
</svg>
