<svg width="353" height="522" viewBox="0 0 353 522" fill="none" xmlns="http://www.w3.org/2000/svg">
<path d="M266.822 1.82145C268.648 2.74781 269.811 4.06368 269.797 6.15697C269.772 9.1678 268.754 11.8965 267.431 14.5804C262.488 24.7091 257.627 34.8731 252.725 45.0195C252.008 45.5918 251.805 46.4072 252.57 46.8779C253.196 47.262 253.428 46.3302 253.747 45.8902C259.686 42.3029 264.457 37.0913 270.623 33.8101C274.353 31.8263 277.698 31.0362 279.948 35.7599L280.436 38.519C277.515 44.158 273.569 48.6299 267.508 51.249C251.954 57.9731 238.901 68.1765 227.424 80.4887C226.455 81.5263 225.322 82.5557 225.239 84.191C227.335 84.5377 228.469 83.236 229.712 82.4097C238.989 76.3139 248.599 70.9016 259.173 67.298C261.875 66.3745 264.57 65.7614 267.387 65.6339C269.713 65.5315 271.806 66.0025 272.588 68.5982C273.368 71.182 271.833 72.7403 269.933 73.992C268.499 74.9264 266.946 75.6837 265.401 76.4149C255.821 80.9435 246.186 85.3706 236.649 90.0029C232.914 91.8145 229.52 94.2216 227.17 97.8295C232.595 96.4609 237.774 94.8145 242.835 92.8548C246.955 91.2595 251.013 90.9868 255.168 92.3916C257.557 93.2059 260.086 93.9708 260.289 97.0773C260.482 100.062 259.025 102.2 256.242 103.225C246.403 106.847 238.849 114.555 229.077 118.277C228.995 118.303 229.11 118.815 229.157 119.5C235.306 118.782 241.431 117.859 247.624 118.161C250.201 118.286 253.033 118.169 253.709 121.216C254.433 124.54 251.917 126.371 249.261 127.484C243.456 129.934 237.39 131.33 231.048 131.376C222.784 131.428 214.491 131.102 206.249 131.558C197.628 132.045 188.848 132.894 184.451 142.246C183.882 143.447 182.315 144.615 183.425 145.978C184.743 147.613 185.933 145.781 187.052 145.237C194.31 141.75 201.882 139.47 209.972 139.139C213.593 138.993 217.111 138.828 219.282 142.824C220.234 144.56 222.675 144.969 224.287 143.843C229.227 140.358 235.432 138.976 239.767 134.46C240.678 133.507 242.144 132.963 243.451 132.57C244.37 132.296 245.668 132.97 244.901 134.033C242.773 137.008 242.459 141.258 238.645 143.046C237.66 143.505 236.395 143.717 236.44 145.094C236.486 146.756 237.982 146.937 239.134 147.141C244.038 148.006 248.957 148.892 253.898 149.477C256.583 149.794 257.734 151.248 258.116 153.617C258.547 156.263 256.621 157.086 254.653 157.806C247.942 160.255 241.158 160.33 234.485 157.874C229.284 155.961 223.856 155.635 218.466 155.031C216.769 154.836 214.676 154.501 213.501 155.785C210.315 159.294 206.219 158.646 202.234 158.98C197.748 159.353 193.175 158.603 188.777 160.1C184.532 161.556 180.298 163.839 175.963 164.087C167.882 164.54 165.888 170.373 162.332 176.842C164.819 175.685 166.167 174.963 167.581 174.404C175.826 171.163 183.006 165.55 191.977 163.888C196.132 163.115 199.593 162.837 199.986 168.632C203.846 166.476 207.809 166.863 211.661 166.479C213.634 166.278 214.867 167.495 215.763 169.056C216.584 170.469 216.01 171.709 215.134 172.928C214.567 173.721 213.165 174.069 213.631 175.508C216.851 175.482 219.632 174.025 222.578 173.083C228.507 171.192 234.681 167.811 240.2 174.257C241.64 175.945 243.698 174.962 245.482 174.386C249.343 173.146 253.166 171.69 257.283 171.617C260.078 171.568 264.135 171.369 265.045 173.497C267.091 178.257 269.963 176.264 272.897 175.671C274.584 175.323 276.255 174.953 277.944 174.617C279.691 174.258 281.417 174.757 281.694 176.464C282.089 178.906 279.867 179.943 278.024 180.603C276.041 181.312 275.001 180.692 276.625 178.586C276.312 178.357 276.025 178 275.675 177.913C272.99 177.25 264.701 181.996 264.091 184.504C262.495 190.972 262.479 191.024 255.581 188.559C254.217 188.07 253.432 188.333 252.982 189.501C251.829 192.451 249.056 192.621 246.587 193.528C241.485 195.396 236.767 192.631 231.841 192.624C223.037 192.636 214.246 192.719 205.442 192.521C202.317 192.455 199.74 192.33 198.269 195.931C197.49 197.838 195.119 198.319 193.073 198.669C188.864 199.414 185.06 198.318 181.42 196.253C174.9 192.557 167.902 190.443 160.384 191.204C155.755 191.677 150.98 192.522 148.457 197.324C145.42 203.082 142.329 208.813 139.427 214.634C138.182 217.131 136.598 219.601 136.345 222.59C137.744 222.714 138.295 222.183 138.757 221.569C146.851 210.957 158.658 206.467 170.65 202.254C172.635 201.556 174.485 201.847 175.903 203.131C177.568 204.617 176.296 206.265 175.508 207.766C175.157 208.446 174.834 209.147 174.495 209.825C174.273 210.112 173.828 210.611 173.861 210.655C174.364 211.185 174.81 210.834 175.257 210.482C177.674 209.424 180.144 208.454 182.49 207.272C187.247 204.859 191.711 204.502 195.683 208.723C197.119 210.25 198.757 209.763 200.439 209.316C204.797 208.149 208.965 206.261 213.522 205.937C215.97 205.751 218.75 205.061 220.231 207.756C221.764 210.528 218.849 211.786 217.702 213.647C217.575 213.843 217.697 214.18 217.715 214.771C223.209 214.207 228.768 211.206 234.19 214.861C234.555 215.106 235.479 214.856 235.957 214.548C242.17 210.405 249.037 211.293 255.854 211.967C257.95 212.178 260.958 211.583 260.229 215.523C260.082 216.304 261.01 216.993 261.855 216.509C266.602 213.826 271.513 216.557 276.362 215.995C280.143 215.561 280.612 217.582 278.38 220.389C276.038 218.577 266.554 218.325 264.84 220.064C264.578 220.333 264.352 220.88 264.45 221.221C264.679 222.096 265.465 222.329 266.282 222.32C269.861 222.293 273.435 222.229 277.012 222.19C276.841 225.499 274.012 224.861 272.12 225.246C268.566 225.974 264.273 224.568 262.369 229.434C261.985 230.417 260.258 230.475 258.936 230.363C256.304 230.136 253.663 230.071 251.029 229.906C250.201 229.855 248.917 230.379 248.88 228.975C248.846 227.806 249.701 226.888 250.954 226.889C253.134 226.874 255.312 227.057 257.488 227.155C258.45 227.195 259.506 227.206 259.764 226.072C260.051 224.821 258.859 224.673 258.058 224.419C252.424 222.583 247.368 225.197 242.171 226.6C241.732 226.714 241.391 227.517 241.191 228.072C239.011 234.112 235.799 235.868 229.381 234.505C228.17 234.249 226.579 233.529 225.842 234.624C223.685 237.851 221.016 236.369 218.354 235.9C215.14 235.33 211.894 234.791 208.645 234.513C199.105 233.665 189.306 235.622 179.994 231.925C178.874 231.48 177.593 231.534 176.601 232.724C171.325 239.002 164.668 239.933 157.212 237.541C153.806 236.449 150.461 235 146.971 234.343C142.313 233.46 137.461 233.379 133.308 236.192C125.999 241.148 120.496 247.899 115.526 255.064C114.47 256.599 111.457 258.283 113.151 259.938C115.082 261.811 117.285 259.256 119.062 257.877C119.674 257.41 120.111 256.727 120.672 256.182C126.762 250.292 133.826 246.27 142.334 245.074C144.137 244.816 146.245 243.973 147.431 246.052C148.693 248.278 147.562 250.223 146.032 251.953C145.423 252.643 144.839 253.34 144.231 254.041C143.614 254.41 142.986 254.781 142.371 255.162C141.39 255.72 139.961 255.564 139.443 256.98C141.124 257.721 142.324 256.717 143.573 255.927C144.067 255.567 144.572 255.194 145.066 254.834C150.518 252.978 155.967 251.111 161.439 249.301C163.57 248.59 165.797 248.975 166.779 250.954C167.807 253.048 165.348 253.657 164.157 254.709C161.597 256.993 158.294 258.444 155.777 261.883C162.901 259.385 169.319 257.037 175.796 254.876C182.062 252.789 188.482 251.641 195.139 252.603C198.461 253.079 200.182 254.395 198.127 257.852C197.736 258.515 197.196 259.105 198.176 260.02C199.078 259.861 200.2 259.823 201.203 259.46C207.705 257.097 214.276 255.822 221.326 256.059C225.245 256.195 229.676 256.425 233.282 254.512C239.426 251.247 246.626 252.683 252.791 249.6C254.293 248.839 256.509 249.164 258.33 249.436C260.408 249.749 262.207 250.803 262.381 253.259C262.59 256.402 258.656 261.366 255.483 262.361C254.168 262.779 252.225 261.96 251.503 264.191C252.163 264.347 252.739 264.517 253.319 264.637C255.608 265.098 258.985 264.488 258.597 268.181C258.255 271.434 255.455 272.573 252.407 272.729C249.91 272.849 247.446 272.592 245.008 271.923C243.313 271.455 240.565 271.769 241.037 273.665C242.62 279.942 238.124 277.669 235.641 277.725C233.666 277.778 231.589 277.254 229.719 276.571C226.828 275.511 224.345 275.567 222.086 277.872C219.111 280.898 215.791 280.57 212.206 278.953C208.889 277.449 205.795 275.176 201.767 275.406C201.474 277.042 203.96 278.334 202.284 280.078C200.662 281.775 198.752 280.864 197.039 280.573C194.292 280.119 191.615 279.294 188.906 278.635C188.795 278.358 188.718 278.062 188.653 277.764C191.56 276.248 194.801 278.371 198.764 276.519C190.549 271.095 181.806 272.926 173.812 271.137C173.668 271.657 173.525 272.178 173.381 272.698C177.479 273.915 181.579 275.144 185.688 276.359C185.73 276.735 185.772 277.111 185.816 277.5C182.74 278.131 180.022 276.719 177.225 275.915C175.552 275.431 173.839 274.584 172.227 275.216C164.79 278.116 157.42 278.455 149.925 275.488C148.177 274.796 147.029 275.457 146.753 277.609C146.31 281.065 143.889 281.963 140.704 282.044C134.429 282.19 128.325 281.551 122.191 280.038C104.748 275.739 104.372 275.93 93.4855 289.894C90.332 293.941 87.4559 298.224 84.6038 302.502C83.6715 303.892 82.7038 305.572 82.6247 307.157C82.4791 310.19 80.7892 312.344 79.4311 314.762C78.6297 316.191 75.8849 317.641 77.7413 319.231C78.9702 320.287 80.7118 317.653 82.4209 317.079C82.6791 316.996 82.8524 316.643 83.0448 316.399C89.9093 308.021 99.4509 303.276 108.474 297.844C109.999 296.931 112.063 296.12 113.784 297.362C115.818 298.833 114.222 300.749 113.948 302.492C113.786 303.473 112.775 304.345 113.695 305.692C119.07 303.751 123.862 300.342 129.462 298.905C135.134 297.456 136.383 298.348 136.649 304.264C138.189 303.225 139.537 302.293 140.89 301.386C146.474 297.688 155.368 297.623 157.401 301.89C159.28 305.851 161.684 305.277 164.598 304.291C169.313 302.69 173.977 301.01 179.048 300.719C183.627 300.453 184.52 301.297 183.325 305.616C182.769 307.657 182.286 309.697 185.571 308.423C192.914 305.552 200.913 305.757 208.378 303.434C210.235 302.858 212.302 301.848 214.266 302.998C216.188 304.117 214.216 306.57 215.834 308.213C223.103 306.605 229.083 302.268 235.444 298.755C237.004 297.897 238.711 294.997 240.479 297.208C242.489 299.735 239.602 301.297 237.869 302.717C236.798 303.6 235.507 304.224 234.27 304.876C228.123 308.055 222.002 311.316 214.682 313.477C217.27 314.714 219.245 313.956 221.172 313.776C224.514 313.457 227.729 313.68 230.63 315.566C232.075 316.511 233.862 317.568 233.252 319.519C232.656 321.406 230.594 320.62 229.153 320.677C225.898 320.783 221.774 319.138 219.582 321.048C216.422 323.797 213.642 322.878 210.534 322.488C207.756 322.138 204.989 321.639 202.216 321.251C201.034 321.089 199.423 320.607 199.563 322.661C199.927 327.867 196.266 327.228 193.276 326.73C188.216 325.894 183.244 324.497 178.204 323.496C177.06 323.266 175.155 322.032 174.771 324.277C174.23 327.528 171.886 327.46 169.543 327.677C164.698 328.126 159.857 327.894 155.07 327.195C151.035 326.61 147.127 325.273 144.698 330.33C143.898 331.981 141.606 332.275 139.659 332.273C136.693 332.266 133.723 332.371 130.766 332.202C127.457 332.008 124.594 332.861 122.18 335.132C116.024 340.922 109.184 341.873 101.56 338.249C98.0121 336.564 94.2718 336.174 90.2578 336.13C83.6836 336.056 77.2424 336.664 70.7318 337.371C68.2968 337.629 67.513 338.386 66.2086 340.126C60.6982 347.535 60.4357 357.404 54.3324 364.547C52.873 366.253 53.1279 368.744 54.8619 370.552C56.3505 372.095 58.2875 373.088 60.3433 372.019C68.4863 367.782 77.5577 365.496 85.2458 360.3C89.6324 357.334 94.4882 355.337 99.4748 353.588C102.29 352.607 105.163 354.19 104.842 357.141C104.391 361.391 106.488 359.856 108.293 358.98C112.771 356.814 117.018 353.898 122.048 353.304C124.416 353.021 126.869 349.853 129.276 352.941C131.76 356.113 127.758 357.676 126.512 361.15C129.856 360.558 132.373 360.137 134.883 359.668C140.101 358.67 145.332 357.039 150.632 357.623C157.194 358.33 163.543 358.951 170.279 358.538C175.139 358.247 179.236 357.497 183.33 355.399C186.798 353.622 190.191 351.698 193.625 349.866C194.542 349.369 195.536 348.538 196.415 350.003C190.992 356.221 183.153 359.303 177.23 365.151C171.064 371.241 162.126 372.39 153.367 372.443C150.257 372.461 146.526 371.773 144.403 375.056C142.288 378.313 139.37 378.929 135.883 378.494C131.239 377.906 126.577 377.494 121.974 376.713C119.556 376.299 118.067 376.365 117.883 379.317C117.698 382.269 115.595 383.421 112.903 384.046C108.469 385.066 104.222 383.986 99.9133 383.326C95.7188 382.683 91.5958 381.322 86.7852 381.542C88.7139 384.17 92.5957 385.29 90.6363 389.076C88.8722 392.493 85.5571 392.263 82.4387 392.234C79.3324 392.202 76.2168 392.048 73.1882 391.125C65.9771 388.924 58.5539 388.259 51.021 388.095C46.8379 388.006 44.4872 389.721 42.5236 393.273C38.3835 400.786 35.3363 408.798 30.602 416.106C25.818 423.485 22.0246 431.555 17.397 439.116C6.61968 456.711 -5.34412 473.279 -21.3689 486.594C-28.2887 492.347 -36.0999 496.847 -43.3458 502.088C-53.2318 509.232 -64.7742 513.464 -74.4288 520.864C-75.0945 521.378 -75.9108 521.671 -76.5511 521.067C-77.2381 520.409 -76.808 519.615 -76.2697 519.013C-73.965 516.477 -72.0983 513.078 -69.2474 511.596C-59.8515 506.729 -52.2654 499.485 -43.8473 493.368C-34.8251 486.81 -26.3151 479.811 -19.0863 470.898C-4.90051 453.43 7.77204 434.98 20.4863 416.486C26.0307 408.428 28.2953 400.06 27.7393 390.471C27.32 383.196 26.3189 381.394 19.352 380.153C11.0295 378.681 3.08407 375.906 -4.94694 373.418C-7.45416 372.637 -10.0208 371.73 -11.9706 369.824C-14.3117 367.528 -16.0041 364.624 -14.7896 361.464C-13.7456 358.743 -10.5126 359.421 -8.14483 359.274C-6.15835 359.145 -4.06921 359.456 -2.13857 359.992C4.95362 361.941 11.7771 364.544 18.0686 368.416C19.5168 369.311 20.931 371.065 23.112 369.231C19.3848 363.73 13.7379 361.537 7.71821 360.462C-4.24687 358.312 -13.1944 350.295 -23.5234 344.984C-26.2938 343.557 -27.1861 340.127 -26.191 337.13C-25.1017 333.894 -22.0357 333.908 -19.0984 334.106C-16.9265 334.253 -14.756 335.515 -11.3809 334.051C-17.1828 330.773 -21.089 326.293 -26.8165 324.275C-32.0022 322.447 -35.9138 319.477 -35.1078 313.099C-34.4007 307.493 -37.3587 304.095 -42.0287 301.606C-45.2477 299.887 -47.1778 297.321 -47.0493 293.351C-46.9455 289.733 -44.4773 288.541 -41.3208 287.946C-44.1827 282.848 -48.0675 279.75 -52.1567 276.898C-57.861 272.909 -60.4018 267.383 -60.5176 260.562C-60.5524 258.403 -60.1111 256.272 -58.1933 255.264C-54.19 253.145 -53.1036 250.454 -54.5853 246.077C-55.2072 244.244 -54.5623 241.371 -52.5475 240.21C-50.4091 238.978 -48.7379 241.132 -47.3703 242.412C-44.2808 245.292 -41.6481 248.674 -40.0986 252.593C-37.9356 258.087 -35.9862 263.495 -30.5606 266.89C-28.7771 267.997 -27.9577 270.314 -27.3548 272.459C-26.9097 274.063 -25.9037 275.332 -24.1379 275.428C-17.2573 275.831 -14.7972 280.901 -12.7163 286.211C-11.6089 289.034 -10.7478 291.937 -8.89767 294.542C-4.84863 289.458 -3.2717 289.538 0.219146 294.685C3.29256 299.226 5.72437 304.066 6.97478 309.449C7.56991 312.041 8.55264 314.019 11.8458 314.055C14.6791 314.086 16.0977 316.074 16.9503 318.719C18.7567 324.301 20.7974 329.804 22.7588 335.42C26.7038 330.8 30.1236 331.06 33.5444 336.022C35.6175 339.045 36.7057 342.391 37.2783 345.976C38.8742 355.975 40.2473 365.976 38.3309 376.101C38.0501 377.598 37.8061 379.163 38.7019 380.65C40.9359 379.747 41.9842 377.681 42.8938 375.813C48.2307 364.761 53.4042 353.626 58.606 342.511C58.9285 341.811 59.1018 341.038 59.2913 340.287C61.109 333.247 60.0434 330.8 53.012 328.915C44.9018 326.75 37.7061 322.815 30.4659 318.838C28.4879 317.753 26.8819 316.318 25.8291 314.364C23.1122 309.315 25.2887 305.775 31.0664 305.692C33.2806 305.659 35.4229 306.901 38.0686 306.222C36.2093 303.495 33.8725 302.066 31.378 300.726C24.3126 296.965 18.4341 291.573 12.7218 286.138C10.201 283.739 7.64909 280.392 10.9795 276.363C12.1764 274.927 10.4742 274.139 9.57428 273.47C6.58521 271.227 3.5643 269.015 0.426681 266.985C-2.23413 265.266 -4.53062 263.223 -6.29659 260.603C-7.62458 258.636 -8.36822 256.677 -5.86683 254.972C-3.45317 253.333 -4.31563 251.753 -5.80846 249.976C-8.42833 246.877 -11.1034 243.886 -14.316 241.362C-17.7331 238.663 -20.1429 235.279 -20.1588 230.705C-20.1702 228.257 -19.3355 227.577 -17.0794 229.182C-13.6467 231.618 -10.0414 233.838 -6.4489 236.196C-7.94049 231.413 -14.7601 223.155 -20.8216 220.232C-24.3738 218.522 -25.5922 215.843 -27.0313 212.757C-28.2632 210.142 -27.4371 206.68 -30.3286 204.78C-27.7006 202.669 -30.9818 199.687 -29.4589 197.079C-25.4289 203.871 -22.4104 207.634 -20.4036 208.368C-20.0628 205.808 -21.3703 203.887 -22.288 201.785C-26.3932 192.466 -32.3702 183.923 -33.2418 173.252C-33.4924 170.154 -31.4388 169.283 -30.237 167.524C-29.6746 166.707 -28.5279 166.319 -27.8126 167.207C-25.2203 170.36 -22.4236 173.478 -23.2375 178.83C-25.4951 175.815 -26.1887 172.387 -29.8052 170.875C-30.6894 182.488 -24.1889 190.764 -19.0106 199.56C-18.7518 197.868 -18.7589 196.286 -19.1106 194.79C-19.8268 191.724 -18.7784 190.92 -15.8248 191.771C-11.6975 192.946 -9.14066 195.549 -7.96107 199.621C-7.22588 202.163 -6.44468 204.685 -5.60336 207.196C-5.2064 208.387 -4.63118 209.745 -2.99212 208.775C1.07055 206.361 2.32154 209.715 3.69412 212.144C6.01056 216.262 6.30377 221.073 7.68782 225.529C8.152 227.03 8.44355 228.117 10.4902 228.608C13.7905 229.385 15.9717 231.968 17.2509 235.132C18.4687 238.158 19.7705 241.169 20.7421 244.275C21.6124 247.09 22.7805 248.925 26.218 248.725C28.5759 248.592 30.0319 250.512 31.3344 252.335C33.9274 255.983 34.9358 260.209 35.9944 264.439C36.368 265.919 36.6116 268.486 39.1618 266.847C43.0271 264.369 44.8807 266.503 46.4861 269.547C47.6436 271.742 48.7814 273.966 49.7309 276.247C50.6125 278.355 51.5697 279.349 54.2523 278.738C58.4014 277.793 61.3168 279.48 62.906 283.763C66.8861 294.478 67.3524 305.592 67.143 316.813C67.1184 318.426 66.2129 320.108 67.5869 321.844C68.0524 321.391 68.4556 320.936 68.8977 320.561C72.7849 317.225 72.8722 312.113 74.8415 307.892C77.8788 301.366 82.4754 295.802 85.9308 289.536C88.8118 284.3 88.3715 280.481 83.7064 276.828C79.1729 273.288 74.505 269.97 69.0901 267.687C62.51 264.917 58.4588 259.127 58.1025 252.558C57.8355 247.546 55.5206 245.258 52.2464 243.017C46.1225 238.831 41.071 233.625 36.6534 227.726C34.7537 225.192 33.5537 222.337 35.1991 219.509C37.0417 216.325 35.3884 214.972 33.0764 213.612C31.1945 212.51 29.2553 211.505 27.3911 210.363C23.3458 207.899 20.6559 204.404 19.6432 199.733C18.954 196.54 20.2138 195.599 23.1795 196.868C25.3125 197.777 27.4399 198.725 29.5771 199.658C30.003 200.102 30.6334 200.72 31.0613 200.125C31.6181 199.346 30.8936 198.757 30.1692 198.378C28.4343 195.654 25.6094 194.199 23.0349 192.477C18.2397 189.28 14.6548 185.003 12.2223 179.879C9.49682 174.15 11.6798 171.067 17.8614 171.445C18.4139 171.483 18.9827 171.333 19.8953 171.234C19.1354 169.673 18.6252 168.403 17.9255 167.252C12.9134 159.046 13.3387 149.816 12.9242 140.746C12.8661 139.507 12.7281 138.096 14.2392 137.594C15.5401 137.166 16.6551 137.859 17.625 138.714C19.8161 140.652 21.0302 143.097 21.5115 145.957C21.7691 147.482 21.9489 149.059 22.4308 150.52C22.9395 152.063 23.7709 153.747 25.5117 151.459C28.0696 148.112 29.6297 150.198 31.1388 152.418C32.7193 154.761 33.7807 157.394 34.3751 160.122C35.4394 164.944 37.0095 169.33 41.4249 172.273C43.1263 173.407 43.679 175.548 44.2741 177.509C45.1841 180.478 46.0961 183.459 47.1122 186.397C47.4363 187.317 47.4583 188.983 48.905 188.678C55.1304 187.341 55.9896 192.546 57.7945 196.086C61.2614 202.921 60.5631 211.729 67.698 216.863C67.9385 217.03 68.0821 217.351 68.2293 217.622C71.5398 223.643 74.3721 229.835 75.7945 236.61C76.2955 239.02 76.7598 241.573 79.5989 243.038C79.4268 240.174 79.2986 237.697 79.1321 235.215C79.0181 233.38 78.4315 231.256 80.9245 230.555C83.1111 229.946 84.449 231.478 85.4883 233.076C88.341 237.421 90.0597 242.226 91.0604 247.319C92.6605 255.449 92.5754 263.728 93.6258 271.906C93.8212 273.43 93.0283 275.958 95.0912 276.261C96.7099 276.506 98.0744 274.335 98.4513 272.821C100.13 266.115 104.897 261.164 108.223 255.429C111.1 250.453 110.605 246.186 108.022 241.472C103.743 233.692 97.6446 227.547 91.0778 221.768C85.3493 216.732 82.8233 210.239 82.1981 202.852C82.0749 201.315 81.8534 199.573 83.6346 198.775C85.266 198.041 86.9129 198.096 88.5273 199.159C89.9741 200.115 90.9441 202.022 93.7159 201.705C90.4783 196.797 87.124 192.491 83.0419 188.698C77.4605 183.513 71.7094 178.419 68.5325 171.261C67.5433 169.036 66.1361 166.551 68.0333 164.236C70.004 161.845 69.0984 159.952 67.5836 157.981C64.7352 154.291 61.6774 150.749 59.0625 146.907C57.5187 144.632 55.6954 141.478 57.5742 139.129C59.7289 136.446 62.6161 138.954 64.9663 140.109C65.6389 137.602 64.0563 136.089 62.8386 134.535C60.5683 131.658 59.352 128.36 58.2488 124.93C56.7877 120.389 56.6027 115.98 58.2055 111.44C58.5669 110.399 57.4392 108.792 58.9566 108.115C60.636 107.373 61.4369 109.025 62.3772 109.923C65.6946 113.109 67.6113 117.211 69.7515 121.175C70.51 122.587 70.9346 124.565 73.3279 124.142C77.1041 123.474 78.5496 125.754 79.6357 128.877C81.1804 133.33 81.4814 138.745 87.876 139.766C89.2555 139.992 89.9907 141.903 90.7569 143.289C92.5265 146.49 93.2087 149.994 93.6164 153.559C93.9102 156.13 94.6326 158.6 96.7034 160.139C100.244 162.766 101.703 166.454 102.429 170.483C103.362 175.687 104.005 180.93 104.818 186.155C105.124 188.093 105.069 190.169 106.672 191.654C106.914 191.55 107.108 191.528 107.19 191.427C107.536 190.932 107.881 190.426 108.159 189.894C110.622 185.24 111.585 185.218 114.677 189.582C117.472 193.529 118.707 197.913 118.837 202.714C119.127 213.6 118.769 224.476 117.988 235.341C117.88 236.832 117.527 238.342 119.03 240.315C121.654 232.997 126.028 227.088 129.49 220.649C135.071 210.271 140.604 200.05 143.58 188.549C144.619 184.542 143.784 181.783 140.393 179.933C133.544 176.209 128.68 170.241 123.083 165.107C120.849 163.066 119.576 160.569 122.598 158.092C124.483 156.546 123.185 155.452 122.362 154.162C119.59 149.853 116.68 145.605 114.157 141.164C112.914 138.972 110.989 136.158 113.214 133.871C115.188 131.851 117.511 134.113 119.609 134.892C119.822 134.978 120.14 134.81 120.417 134.761C120.682 133.106 120.118 131.746 119.108 130.452C115.077 125.265 113.369 119.121 112.014 112.866C110.989 108.123 111.421 107.762 115.966 109.123C116.62 109.316 117.149 109.359 117.614 108.906C116.831 102.871 116.05 96.8476 115.26 90.8388C115.015 88.9645 114.989 87.0639 115.721 85.3136C116.797 82.7726 118.456 82.2685 120.162 84.6884C121.406 86.4602 122.352 88.4453 123.317 90.3902C125.229 94.2581 126.243 99.0027 129.143 101.867C132.827 105.508 134.214 109.493 134.819 114.174C135.255 117.549 135.365 120.833 139.768 122.021C141.839 122.582 142.695 125.103 143.193 127.291C144.367 132.452 145.433 137.633 145.151 142.978C145.095 144.064 144.746 145.314 145.856 146.12C147.287 145.446 146.962 144.377 147.184 143.534C147.525 142.236 147.228 140.346 148.853 139.997C150.728 139.591 152.068 141.061 152.981 142.508C154.918 145.604 155.791 149.062 155.902 152.705C155.975 155.08 156.104 157.42 158.097 159.851C158.229 158.491 158.513 157.575 158.376 156.733C157.374 150.23 157.629 143.751 158.195 137.206C159.386 123.472 160.719 109.702 157.311 96.0526C156.718 93.6832 157.287 91.4298 158.213 89.2369C160.147 84.6758 162.348 84.2863 165.699 88.0852C169.083 91.9277 170.403 96.7913 171.804 101.554C172.333 103.353 172.511 105.549 174.101 106.542C179.674 109.997 181.716 115.301 182.59 121.357C182.695 122.093 182.541 122.974 183.5 123.275C184.537 123.599 184.762 122.631 185.197 122.071C189.763 116.129 193.427 109.987 190.921 101.993C190.272 99.9431 190.223 97.7002 189.939 95.5359C188.758 86.5526 188.678 77.5478 189.876 68.5518C190.518 63.6998 192.415 62.993 196.356 65.8462C200.593 68.9067 201.616 73.3527 201.724 78.1709C201.853 83.3814 202.749 88.5178 202.646 93.8189C208.177 87.7181 210.592 80.6222 211.005 72.7921C211.339 66.411 212.767 60.1827 213.648 53.878C214.079 50.8449 215.343 48.2459 217.205 45.8749C218.278 44.5096 219.401 43.0738 221.429 43.5313C223.455 43.9769 224.539 45.4058 225.074 47.3772C225.291 48.1801 225.018 49.2305 226.485 50.0224C229.57 43.4143 232.681 36.888 236.394 30.676C237.313 29.1401 238.11 27.4032 240.141 27.8106C242.34 28.2504 242.28 30.1539 241.928 31.9483C239.313 36.0237 235.512 39.5666 236.613 45.2978C238.785 40.8184 240.97 36.3489 243.142 31.8695C245.441 27.4789 247.572 22.9819 250.091 18.7132C253.564 12.8282 257.316 7.11649 262.788 2.78293C264.061 1.77816 265.268 0.958332 266.999 1.83964L266.822 1.82145Z" fill="#A6B587"/>
</svg>
