<svg width="24" height="24" viewBox="0 0 24 24" fill="none" xmlns="http://www.w3.org/2000/svg">
<path fill-rule="evenodd" clip-rule="evenodd" d="M11.9601 0C5.35471 0 0 5.35535 0 11.9615C0 18.5677 5.35471 23.923 11.9601 23.923C18.5654 23.923 23.9201 18.5677 23.9201 11.9615C23.9201 5.35535 18.5654 0 11.9601 0ZM9.33049 5.62059C10.0109 5.58962 10.2283 5.58204 11.9607 5.58204H11.9587C13.6916 5.58204 13.9082 5.58962 14.5886 5.62059C15.2677 5.65169 15.7315 5.75921 16.1381 5.91697C16.558 6.07978 16.9129 6.29775 17.2677 6.65261C17.6225 7.00721 17.8404 7.36313 18.0039 7.78272C18.1607 8.18835 18.2683 8.65193 18.3002 9.33109C18.3308 10.0116 18.3388 10.229 18.3388 11.9616C18.3388 13.6942 18.3308 13.9111 18.3002 14.5916C18.2683 15.2704 18.1607 15.7342 18.0039 16.1399C17.8404 16.5594 17.6225 16.9153 17.2677 17.2699C16.9133 17.6248 16.5579 17.8433 16.1385 18.0062C15.7327 18.164 15.2686 18.2715 14.5895 18.3026C13.9091 18.3336 13.6924 18.3411 11.9599 18.3411C10.2276 18.3411 10.0104 18.3336 9.32996 18.3026C8.65102 18.2715 8.18736 18.164 7.78151 18.0062C7.36224 17.8433 7.00636 17.6248 6.65194 17.2699C6.29725 16.9153 6.07931 16.5594 5.91625 16.1398C5.75864 15.7342 5.65114 15.2706 5.61991 14.5914C5.58908 13.9109 5.58137 13.6942 5.58137 11.9616C5.58137 10.229 5.58934 10.0114 5.61977 9.33095C5.65034 8.65207 5.75798 8.18835 5.91612 7.78259C6.07958 7.36313 6.29752 7.00721 6.65234 6.65261C7.00689 6.29788 7.36277 6.07991 7.78231 5.91697C8.18789 5.75921 8.65142 5.65169 9.33049 5.62059Z" fill="#CE4115"/>
<path fill-rule="evenodd" clip-rule="evenodd" d="M11.3884 6.7317C11.4995 6.73152 11.6191 6.73158 11.748 6.73164L11.9606 6.7317C13.6638 6.7317 13.8656 6.73781 14.5382 6.76838C15.1601 6.79682 15.4977 6.90076 15.7225 6.98808C16.0202 7.1037 16.2324 7.24193 16.4556 7.46521C16.6788 7.6885 16.817 7.90115 16.9329 8.19886C17.0202 8.42347 17.1243 8.76106 17.1526 9.38306C17.1831 10.0556 17.1898 10.2576 17.1898 11.9601C17.1898 13.6627 17.1831 13.8647 17.1526 14.5372C17.1241 15.1592 17.0202 15.4968 16.9329 15.7214C16.8173 16.0191 16.6788 16.2311 16.4556 16.4543C16.2323 16.6775 16.0203 16.8158 15.7225 16.9314C15.4979 17.0191 15.1601 17.1228 14.5382 17.1512C13.8658 17.1818 13.6638 17.1884 11.9606 17.1884C10.2574 17.1884 10.0555 17.1818 9.38309 17.1512C8.76116 17.1225 8.42362 17.0186 8.19863 16.9313C7.90096 16.8156 7.68833 16.6774 7.46508 16.4541C7.24182 16.2308 7.10361 16.0187 6.98773 15.7209C6.90042 15.4963 6.79637 15.1587 6.76806 14.5367C6.7375 13.8642 6.73138 13.6621 6.73138 11.9585C6.73138 10.2549 6.7375 10.054 6.76806 9.38147C6.7965 8.75946 6.90042 8.42188 6.98773 8.197C7.10335 7.89929 7.24182 7.68664 7.46508 7.46335C7.68833 7.24007 7.90096 7.10184 8.19863 6.98595C8.42349 6.89823 8.76116 6.79456 9.38309 6.76599C9.97153 6.73941 10.1996 6.73143 11.3884 6.7301V6.7317ZM15.3656 7.79097C14.943 7.79097 14.6001 8.13347 14.6001 8.55625C14.6001 8.97889 14.943 9.32179 15.3656 9.32179C15.7882 9.32179 16.131 8.97889 16.131 8.55625C16.131 8.1336 15.7882 7.7907 15.3656 7.7907V7.79097ZM8.68488 11.9616C8.68488 10.1524 10.1515 8.6855 11.9605 8.68543C13.7696 8.68543 15.2359 10.1523 15.2359 11.9616C15.2359 13.7709 13.7697 15.2371 11.9606 15.2371C10.1516 15.2371 8.68488 13.7709 8.68488 11.9616Z" fill="#CE4115"/>
<path d="M11.9607 9.83507C13.1349 9.83507 14.0869 10.7871 14.0869 11.9616C14.0869 13.1359 13.1349 14.0881 11.9607 14.0881C10.7863 14.0881 9.83441 13.1359 9.83441 11.9616C9.83441 10.7871 10.7863 9.83507 11.9607 9.83507Z" fill="#CE4115"/>
</svg>
