<svg width="24" height="24" viewBox="0 0 24 24" fill="none" xmlns="http://www.w3.org/2000/svg">
<path fill-rule="evenodd" clip-rule="evenodd" d="M11.9601 0C5.35471 0 0 5.35535 0 11.9615C0 18.5677 5.35471 23.923 11.9601 23.923C18.5654 23.923 23.9201 18.5677 23.9201 11.9615C23.9201 5.35535 18.5654 0 11.9601 0ZM5.74164 9.90705H8.45206V18.0517H5.74164V9.90705ZM8.63057 7.38758C8.61298 6.589 8.04198 5.98076 7.11477 5.98076C6.18755 5.98076 5.58137 6.589 5.58137 7.38758C5.58137 8.16962 6.16963 8.79538 7.07958 8.79538H7.0969C8.04198 8.79538 8.63057 8.16962 8.63057 7.38758ZM15.1061 9.7158C16.8897 9.7158 18.2268 10.8801 18.2268 13.3818L18.2267 18.0517H15.5164V13.6943C15.5164 12.5998 15.1242 11.853 14.143 11.853C13.3942 11.853 12.9482 12.3565 12.7523 12.8428C12.6807 13.017 12.6631 13.2599 12.6631 13.5033V18.0519H9.95233C9.95233 18.0519 9.98805 10.6715 9.95233 9.90727H12.6631V11.0609C13.0228 10.5063 13.6671 9.7158 15.1061 9.7158Z" fill="#CE4115"/>
</svg>
