<svg width="24" height="24" viewBox="0 0 24 24" fill="none" xmlns="http://www.w3.org/2000/svg">
<path fill-rule="evenodd" clip-rule="evenodd" d="M11.9601 23.923C5.35471 23.923 0 18.5677 0 11.9615C0 5.35535 5.35471 0 11.9601 0C18.5654 0 23.9201 5.35535 23.9201 11.9615C23.9201 18.5677 18.5654 23.923 11.9601 23.923ZM12.1267 11.2902C13.106 11.2902 17.8676 8.61229 17.8676 8.61229L17.8752 8.13383C17.8752 7.60561 17.4466 7.17691 16.917 7.17691H7.33647C6.80736 7.17691 6.37871 7.60561 6.37871 8.13383V8.56014C6.37871 8.56014 11.1924 11.2902 12.1267 11.2902ZM6.38636 10.0477C6.38588 10.0477 11.1924 12.606 12.1267 12.606C13.151 12.606 17.8676 10.0477 17.8676 10.0477L17.8752 15.7892C17.8752 16.3174 17.4466 16.7461 16.917 16.7461H7.33647C6.80783 16.7461 6.37871 16.3174 6.37871 15.7892L6.38636 10.0477Z" fill="#CE4115"/>
</svg>
