<svg width="41" height="25" viewBox="0 0 41 25" fill="none" xmlns="http://www.w3.org/2000/svg">
<path d="M18 2.07996C18 2.77329 17.7867 3.27996 17.36 3.59996C16.9334 3.91996 16.3467 4.07996 15.6 4.07996C15.2267 4.07996 14.72 4.05329 14.08 3.99996C13.44 3.89329 12.8 3.83996 12.16 3.83996C9.81335 3.83996 7.97335 4.45329 6.64002 5.67996C5.36002 6.85329 4.72002 8.10662 4.72002 9.43996C4.72002 9.97329 4.85335 10.3733 5.12002 10.64C5.38669 10.9066 5.70669 11.04 6.08002 11.04C6.61335 11.04 7.09335 10.88 7.52002 10.56C8.00002 10.1866 8.48002 9.78663 8.96002 9.35996C9.44002 8.87996 10.0267 8.47996 10.72 8.15996C11.4134 7.78662 12.2667 7.59996 13.28 7.59996C15.1467 7.59996 16.6667 8.21329 17.84 9.43996C19.0667 10.6133 19.68 12.4266 19.68 14.88C19.68 17.3866 18.9067 19.6 17.36 21.52C15.8134 23.44 13.4667 24.4 10.32 24.4C7.12002 24.4 4.58669 23.3866 2.72002 21.36C0.906686 19.28 1.95354e-05 16.32 1.95354e-05 12.48C1.95354e-05 9.01329 1.33335 6.07996 4.00002 3.67996C6.72002 1.22663 10.56 -4.1008e-05 15.52 -4.1008e-05C16.2134 -4.1008e-05 16.8 0.159959 17.28 0.479958C17.76 0.746624 18 1.27996 18 2.07996ZM38.96 2.07996C38.96 2.77329 38.7467 3.27996 38.32 3.59996C37.8934 3.91996 37.3067 4.07996 36.56 4.07996C36.1867 4.07996 35.68 4.05329 35.04 3.99996C34.4 3.89329 33.76 3.83996 33.12 3.83996C30.7734 3.83996 28.9334 4.45329 27.6 5.67996C26.32 6.85329 25.68 8.10662 25.68 9.43996C25.68 9.97329 25.8134 10.3733 26.08 10.64C26.3467 10.9066 26.6667 11.04 27.04 11.04C27.5734 11.04 28.0534 10.88 28.48 10.56C28.96 10.1866 29.44 9.78663 29.92 9.35996C30.4 8.87996 30.9867 8.47996 31.68 8.15996C32.3734 7.78662 33.2267 7.59996 34.24 7.59996C36.1067 7.59996 37.6267 8.21329 38.8 9.43996C40.0267 10.6133 40.64 12.4266 40.64 14.88C40.64 17.3866 39.8667 19.6 38.32 21.52C36.7734 23.44 34.4267 24.4 31.28 24.4C28.08 24.4 25.5467 23.3866 23.68 21.36C21.8667 19.28 20.96 16.32 20.96 12.48C20.96 9.01329 22.2934 6.07996 24.96 3.67996C27.68 1.22663 31.52 -4.1008e-05 36.48 -4.1008e-05C37.1734 -4.1008e-05 37.76 0.159959 38.24 0.479958C38.72 0.746624 38.96 1.27996 38.96 2.07996Z" fill="#CE4115"/>
</svg>
