<svg width="222" height="441" viewBox="0 0 222 441" fill="none" xmlns="http://www.w3.org/2000/svg">
<path d="M0.485877 93.7842C7.35517 114.086 22.9311 126.131 40.111 136.825C48.801 142.236 58.2737 148.168 64.4443 155.314C74.1898 166.595 85.261 176.544 95.084 187.937C90.6292 188.801 90.5048 188.943 87.728 186.521C78.3349 178.328 68.2199 171.092 59.5497 161.904C47.5606 149.206 31.7768 147.215 15.2934 148.864C10.4308 149.352 11.5101 152.545 11.4397 155.86C10.8616 182.237 27.8265 195.848 48.7316 204.295C80.9885 217.333 105.041 240.151 127.308 265.755C128.903 267.586 128.888 267.887 128.433 274.639C126.456 272.222 124.498 269.777 122.488 267.388C109.072 251.409 90.6159 241.496 75.5132 227.527C62.5483 215.53 46.7433 211.928 29.7427 212.597C21.213 212.931 19.4002 216.45 21.8197 224.663C27.5504 244.129 41.2533 256.463 58.0322 265.529C87.381 281.39 115.208 299.637 142.472 318.813C149.389 323.678 153.432 330.754 155.668 338.946C152.675 340.084 151.614 338.171 150.491 336.894C130.113 313.605 103.728 299.128 76.8322 285.422C71.3829 282.641 65.8264 280.069 60.2805 277.486C53.4241 274.299 48.2463 275.855 45.0275 282.42C43.1764 286.197 42.0372 289.938 38.014 292.574C34.4292 294.926 37.9201 308.065 42.8362 312.806C59.0272 328.421 78.8436 337.802 98.6308 347.749C126.079 361.543 154.308 374.847 173.493 400.801C180.986 410.942 191.61 417.261 201.372 424.633C207.338 429.141 213.69 433.176 218.827 438.687C221.405 441.446 222.71 440.824 224.823 438.053C231.852 428.847 231.985 428.932 222.821 421.713C217.576 417.579 212.252 413.548 207.008 409.398C199.533 403.48 196.275 395.579 199.277 386.601C206.559 364.825 207.595 341.504 216.187 319.948C219.953 310.493 218.587 299.332 217.693 288.864C217.53 286.943 217.162 284.74 215.101 284.269C206.699 282.354 207.966 276.143 208.864 270.287C209.863 263.76 211.208 257.623 208.587 250.77C206.874 246.277 209.481 240.769 211.223 236.026C216.24 222.392 213.861 210.46 204.029 199.706C201.474 196.909 199.022 195.744 195.708 197.348C191.737 199.263 190.997 197.166 191.235 193.887C191.423 191.239 191.141 188.185 192.338 186.035C199.879 172.555 190.292 161.527 187.189 149.659C186.236 146.007 182.418 145.338 179.19 146.977C171.701 150.762 170.709 147.485 171.547 140.698C172.134 135.902 171.065 131.064 169.102 126.566C166.182 119.88 164.522 113.113 164.476 105.627C164.416 96.0021 158.334 93.2736 149.876 98.0016C145.164 100.637 141.579 104.438 137.766 109.349C134.383 103.97 134.56 98.4871 134.859 93.5221C135.731 79.2051 130.563 67.459 121.571 56.8211C117.013 51.4323 111.45 50.9398 106.942 56.3768C104.193 59.6967 102.779 63.6696 102.151 68.0519C99.2137 88.7003 96.8492 109.414 95.5762 132.769C88.9723 119.268 84.9151 107.333 82.2377 95.0223C77.9956 75.5405 70.2959 57.2483 63.3311 38.7408C57.8326 24.1284 46.798 13.2716 35.7752 2.66927C33.0067 0.00855035 29.9112 -0.870209 26.3293 0.985344C22.2923 3.08015 21.1613 6.58084 21.0123 10.9297C20.4755 26.5517 24.3623 40.9216 31.1668 55.0152C37.2649 67.6283 38.2859 82.4775 47.6617 93.789C48.8212 95.1862 48.6518 96.837 46.6062 97.5579C44.3083 98.3705 42.3414 97.614 41.0326 95.6648C32.9983 83.7108 20.1564 84.9385 8.39217 83.4462C5.12066 83.0306 2.34594 85.0512 -4.26524e-06 87.3449L0.463439 93.7627L0.485877 93.7842ZM170.83 380.524C148.242 367.566 56.2221 303.982 52.5509 298.796C83.9943 293.886 166.056 352.661 170.83 380.524ZM168.751 316.201C160.881 304.801 157.743 292.613 158.653 279.893C160.993 247.132 163.887 214.407 166.764 181.694C167.106 177.778 168.195 173.716 169.89 170.195C172.152 165.493 172.046 158.487 178.918 157.542C181.904 157.131 184.862 169.066 183.548 175.752C181.855 184.38 179.433 192.918 178.48 201.625C175.526 228.643 168.913 255.225 170.319 282.789C170.883 293.879 169.335 305.064 168.745 316.203L168.751 316.201ZM69.0078 101.735C55.2088 82.0588 42.7073 62.0218 34.9549 39.4909C33.5079 35.2857 33.2149 30.5874 32.9866 26.0873C32.837 23.074 34.2984 19.8376 37.3185 19.1176C40.1091 18.4513 40.8096 21.8115 41.9576 23.782C55.6859 47.3576 61.4417 73.8293 69.1818 99.5728C69.3731 100.22 69.0736 101.009 69.0013 101.738L69.0078 101.735ZM28.5298 163.423C28.5432 160.616 31.1556 161.678 33.4671 161.991C38.0069 162.612 39.952 166.998 43.6621 168.984C61.4726 178.51 76.7316 191.196 88.7088 207.713C89.7973 209.217 90.8824 210.752 91.7481 212.389C92.3878 213.606 92.439 215.198 91.1678 215.934C90.501 216.316 89.1091 215.913 88.2906 215.434C86.6936 214.506 85.296 213.24 83.7669 212.176C73.7639 205.188 64.5552 196.817 54.2569 190.608C45.3391 185.236 37.6826 179.383 31.5921 171.107C30.1408 169.128 28.9326 167.113 28.5451 163.425L28.5298 163.423ZM94.1141 265.927C90.6295 267.607 87.5714 266.367 84.9533 264.746C70.2542 255.678 55.0406 247.352 42.1353 235.601C40.4036 234.02 38.7547 232.142 37.7082 230.068C36.9838 228.639 35.1013 226.824 36.7967 225.018C38.4815 223.223 40.2386 225.076 41.8727 225.562C64.3625 232.22 79.6199 248.41 94.1117 265.921L94.1141 265.927ZM150.203 225.032C144.017 198.103 151.369 144.154 163.12 132.161C164.455 164.792 152.212 194.165 150.203 225.032ZM50.3062 128.775C35.6377 125.197 24.5599 116.802 17.06 103.597C16.3058 102.267 14.6685 100.785 15.8501 99.2983C17.0844 97.7559 19.3092 97.5686 20.9644 98.6971C30.6225 105.301 40.799 111.295 48.3301 120.593C50.2009 122.9 51.4427 125.613 50.3038 128.769L50.3062 128.775ZM136.784 233.344C130.123 222.347 130.854 177.656 137.863 170.697C140.493 191.829 134.894 211.766 136.784 233.344V233.344ZM200.671 208.976C203.84 219.371 209.132 228.817 200.993 238.597C199.652 240.208 200.139 244.311 196.748 243.044C193.731 241.915 194.124 238.157 194.963 235.99C197.529 229.344 197.391 222.49 197.555 215.6C197.608 213.548 197.204 211.248 200.671 208.976ZM196.337 287.242C197.142 275.987 193.043 263.594 204.506 252.984C204.096 266.032 197.241 276.04 196.337 287.242ZM139.765 143.809C139.116 137.99 137.948 133.484 140.498 129.232C141.101 128.229 141.636 126.638 143.369 127.272C144.997 127.864 144.834 129.231 144.552 130.59C143.704 134.69 143.482 138.999 139.765 143.809ZM208.84 294.076C211.627 301.727 208.734 306.77 206.675 313.564C205.018 306.198 207.023 301.012 208.84 294.076Z" fill="#A6B587"/>
</svg>
