<svg width="413" height="624" viewBox="0 0 413 624" fill="none" xmlns="http://www.w3.org/2000/svg">
<path d="M191.473 180.7C198.342 201.001 213.918 213.047 231.098 223.741C239.788 229.152 249.261 235.084 255.432 242.23C265.177 253.511 276.248 263.46 286.071 274.853C281.617 275.717 281.492 275.858 278.715 273.437C269.322 265.244 259.207 258.008 250.537 248.82C238.548 236.122 222.764 234.131 206.281 235.78C201.418 236.267 202.497 239.46 202.427 242.775C201.849 269.153 218.814 282.764 239.719 291.21C271.976 304.248 296.029 327.067 318.295 352.671C319.89 354.501 319.875 354.803 319.42 361.554C317.443 359.138 315.486 356.693 313.475 354.304C300.059 338.324 281.603 328.412 266.5 314.442C253.536 302.446 237.731 298.844 220.73 299.513C212.2 299.847 210.387 303.366 212.807 311.579C218.538 331.045 232.241 343.379 249.019 352.445C278.368 368.306 306.196 386.553 333.46 405.729C340.376 410.594 344.419 417.67 346.655 425.861C343.663 427 342.601 425.087 341.478 423.809C321.1 400.521 294.715 386.044 267.819 372.338C262.37 369.557 256.814 366.985 251.268 364.401C244.411 361.215 239.234 362.771 236.015 369.336C234.164 373.113 233.025 376.853 229.001 379.49C225.417 381.842 228.907 394.981 233.824 399.722C250.015 415.336 269.831 424.718 289.618 434.665C317.066 448.459 345.295 461.763 364.481 487.717C371.973 497.857 382.598 504.177 392.359 511.549C398.326 516.056 404.677 520.091 409.814 525.602C412.392 528.362 413.697 527.74 415.811 524.969C422.839 515.763 422.972 515.848 413.808 508.628C408.564 504.494 403.239 500.463 397.996 496.314C390.52 490.396 387.262 482.495 390.264 473.517C397.546 451.741 398.582 428.42 407.175 406.863C410.941 397.408 409.575 386.248 408.68 375.78C408.517 373.858 408.149 371.656 406.088 371.185C397.686 369.27 398.954 363.059 399.852 357.203C400.85 350.676 402.196 344.539 399.574 337.686C397.862 333.193 400.468 327.685 402.21 322.942C407.227 309.307 404.848 297.376 395.016 286.622C392.461 283.824 390.009 282.66 386.695 284.263C382.724 286.179 381.985 284.082 382.222 280.803C382.41 278.154 382.128 275.1 383.325 272.951C390.867 259.471 381.279 248.443 378.176 236.575C377.223 232.922 373.406 232.254 370.177 233.893C362.688 237.677 361.696 234.401 362.534 227.614C363.121 222.817 362.052 217.98 360.089 213.482C357.169 206.795 355.51 200.029 355.464 192.542C355.403 182.918 349.321 180.189 340.864 184.917C336.152 187.553 332.566 191.354 328.753 196.265C325.371 190.885 325.547 185.403 325.846 180.438C326.718 166.121 321.55 154.375 312.558 143.737C308 138.348 302.437 137.856 297.929 143.293C295.18 146.612 293.766 150.585 293.139 154.968C290.201 175.616 287.837 196.33 286.563 219.685C279.96 206.184 275.902 194.249 273.225 181.938C268.983 162.456 261.283 144.164 254.318 125.657C248.82 111.044 237.785 100.187 226.762 89.585C223.994 86.9243 220.898 86.0456 217.317 87.9011C213.28 89.9959 212.149 93.4966 212 97.8455C211.463 113.467 215.35 127.837 222.154 141.931C228.252 154.544 229.273 169.393 238.649 180.705C239.809 182.102 239.639 183.753 237.593 184.474C235.296 185.286 233.329 184.53 232.02 182.581C223.986 170.627 211.144 171.854 199.379 170.362C196.108 169.946 193.333 171.967 190.987 174.261L191.451 180.679L191.473 180.7ZM361.818 467.44C339.23 454.482 247.209 390.898 243.538 385.711C274.982 380.802 357.043 439.577 361.818 467.44ZM359.738 403.117C351.869 391.716 348.73 379.529 349.64 366.809C351.98 334.048 354.874 301.322 357.751 268.61C358.094 264.693 359.182 260.632 360.877 257.111C363.139 252.408 363.033 245.402 369.906 244.458C372.891 244.046 375.85 255.981 374.536 262.668C372.842 271.296 370.421 279.834 369.467 288.541C366.514 315.559 359.901 342.141 361.306 369.705C361.87 380.795 360.322 391.979 359.732 403.119L359.738 403.117ZM259.995 188.651C246.196 168.975 233.695 148.938 225.942 126.407C224.495 122.201 224.202 117.503 223.974 113.003C223.824 109.99 225.286 106.753 228.306 106.033C231.096 105.367 231.797 108.727 232.945 110.698C246.673 134.273 252.429 160.745 260.169 186.489C260.36 187.136 260.061 187.925 259.989 188.653L259.995 188.651ZM219.517 250.338C219.53 247.532 222.143 248.594 224.454 248.907C228.994 249.527 230.939 253.914 234.649 255.9C252.46 265.426 267.719 278.112 279.696 294.628C280.785 296.133 281.87 297.668 282.735 299.305C283.375 300.521 283.426 302.114 282.155 302.85C281.488 303.232 280.096 302.829 279.278 302.35C277.681 301.422 276.283 300.156 274.754 299.092C264.751 292.104 255.543 283.733 245.244 277.524C236.326 272.152 228.67 266.299 222.579 258.022C221.128 256.044 219.92 254.029 219.532 250.34L219.517 250.338ZM285.101 352.843C281.617 354.523 278.559 353.283 275.941 351.662C261.242 342.594 246.028 334.268 233.123 322.516C231.391 320.935 229.742 319.058 228.696 316.984C227.971 315.554 226.089 313.74 227.784 311.934C229.469 310.139 231.226 311.992 232.86 312.477C255.35 319.136 270.607 335.326 285.099 352.836L285.101 352.843ZM341.19 311.948C335.004 285.019 342.356 231.07 354.108 219.077C355.442 251.708 343.199 281.081 341.19 311.948ZM241.293 215.691C226.625 212.112 215.547 203.718 208.047 190.513C207.293 189.183 205.656 187.7 206.837 186.214C208.072 184.672 210.296 184.484 211.952 185.613C221.61 192.217 231.786 198.211 239.317 207.509C241.188 209.816 242.43 212.529 241.291 215.685L241.293 215.691ZM327.772 320.26C321.111 309.263 321.841 264.572 328.851 257.613C331.48 278.745 325.881 298.682 327.772 320.26ZM391.659 295.891C394.827 306.287 400.119 315.733 391.98 325.512C390.639 327.123 391.126 331.226 387.736 329.959C384.718 328.831 385.111 325.073 385.95 322.906C388.517 316.259 388.378 309.405 388.542 302.516C388.595 300.464 388.191 298.164 391.659 295.891ZM387.324 374.158C388.129 362.903 384.03 350.51 395.493 339.9C395.083 352.948 388.229 362.955 387.324 374.158ZM330.752 230.725C330.104 224.906 328.936 220.4 331.486 216.147C332.088 215.145 332.624 213.553 334.356 214.188C335.984 214.779 335.822 216.147 335.539 217.506C334.692 221.606 334.47 225.915 330.752 230.725ZM399.828 380.992C402.614 388.643 399.721 393.685 397.663 400.48C396.005 393.114 398.011 387.928 399.828 380.992Z" fill="#A6B587"/>
</svg>
