<svg width="24" height="24" viewBox="0 0 24 24" fill="none" xmlns="http://www.w3.org/2000/svg">
<path fill-rule="evenodd" clip-rule="evenodd" d="M0 11.9615C0 18.5677 5.35471 23.923 11.9601 23.923C18.5654 23.923 23.9201 18.5677 23.9201 11.9615C23.9201 5.35535 18.5654 0 11.9601 0C5.35471 0 0 5.35535 0 11.9615ZM19.4661 11.5037C19.4645 15.4245 16.2754 18.6148 12.3543 18.6164H12.3514C11.1611 18.616 9.99155 18.3173 8.95279 17.7506L5.1827 18.7397L6.19164 15.054C5.56927 13.9753 5.24179 12.7517 5.24232 11.4981C5.24388 7.57647 8.43425 4.38589 12.3542 4.38589C14.2567 4.38671 16.0424 5.12744 17.3851 6.47189C18.7278 7.81626 19.4668 9.60327 19.4661 11.5037Z" fill="#CE4115"/>
<path fill-rule="evenodd" clip-rule="evenodd" d="M6.89021 17.0499L9.12744 16.463L9.34329 16.5911C10.2508 17.1297 11.2912 17.4147 12.3519 17.4152H12.3543C15.6123 17.4152 18.264 14.7631 18.2653 11.5033C18.2659 9.92369 17.6516 8.4384 16.5356 7.32095C15.4196 6.20349 13.9354 5.5878 12.3566 5.58725C9.09607 5.58725 6.44435 8.23905 6.44305 11.4985C6.4426 12.6156 6.75511 13.7035 7.34682 14.6447L7.48736 14.8684L6.89021 17.0499ZM15.6938 13.0351C15.8177 13.095 15.9014 13.1355 15.9372 13.1951C15.9816 13.2692 15.9816 13.6251 15.8336 14.0403C15.6854 14.4554 14.9755 14.8343 14.6341 14.8853C14.3279 14.9311 13.9405 14.9502 13.5148 14.8149C13.2567 14.733 12.9258 14.6236 12.5018 14.4405C10.8359 13.7211 9.71007 12.1063 9.4973 11.8011C9.48239 11.7797 9.47197 11.7647 9.46615 11.757L9.46472 11.755C9.37067 11.6296 8.74055 10.7887 8.74055 9.91848C8.74055 9.09985 9.14263 8.67076 9.32771 8.47325C9.34039 8.45972 9.35205 8.44728 9.36249 8.43587C9.52537 8.25794 9.7179 8.21346 9.83636 8.21346C9.95481 8.21346 10.0734 8.21455 10.1769 8.21976C10.1897 8.2204 10.203 8.22032 10.2167 8.22024C10.3203 8.21963 10.4494 8.21887 10.5768 8.52483C10.6258 8.64258 10.6974 8.81714 10.7731 9.00126C10.926 9.37356 11.0949 9.78491 11.1246 9.84444C11.1691 9.9334 11.1987 10.0371 11.1395 10.1558C11.1306 10.1736 11.1223 10.1904 11.1145 10.2064C11.07 10.2973 11.0373 10.3641 10.9618 10.4523C10.9321 10.4869 10.9014 10.5243 10.8707 10.5617C10.8096 10.6361 10.7484 10.7106 10.6952 10.7636C10.6062 10.8523 10.5136 10.9484 10.6173 11.1263C10.7209 11.3043 11.0776 11.8862 11.6059 12.3575C12.1737 12.8641 12.6673 13.0782 12.9174 13.1867C12.9663 13.2079 13.0059 13.2251 13.0349 13.2396C13.2125 13.3286 13.3162 13.3137 13.4199 13.1951C13.5235 13.0765 13.8641 12.6762 13.9825 12.4983C14.101 12.3204 14.2195 12.35 14.3823 12.4093C14.5453 12.4687 15.4189 12.8986 15.5966 12.9875C15.6313 13.0049 15.6637 13.0206 15.6938 13.0351Z" fill="#CE4115"/>
</svg>
